<svg width="11" height="10" viewBox="0 0 11 10" fill="none" xmlns="http://www.w3.org/2000/svg">
<path d="M1.49497 5.06753C1.22161 4.79416 0.778392 4.79416 0.505025 5.06753C0.231658 5.34089 0.231658 5.78411 0.505025 6.05747L1.49497 5.06753ZM10.5448 1.78811C10.7592 1.46644 10.6723 1.03183 10.3506 0.817388C10.0289 0.602941 9.59433 0.689862 9.37989 1.01153L10.5448 1.78811ZM4.71231 9.27481L4.21734 9.76979C4.36563 9.91808 4.5726 9.99207 4.78129 9.97141C4.98998 9.95074 5.17842 9.8376 5.29475 9.6631L4.71231 9.27481ZM0.505025 6.05747L4.21734 9.76979L5.20729 8.77984L1.49497 5.06753L0.505025 6.05747ZM5.29475 9.6631L10.5448 1.78811L9.37989 1.01153L4.12988 8.88652L5.29475 9.6631Z" fill="white"/>
</svg>
