<svg width="56" height="56" viewBox="0 0 56 56" fill="none" xmlns="http://www.w3.org/2000/svg">
<path d="M3 10C3 7.79086 4.79086 6 7 6H49C51.2091 6 53 7.79086 53 10V16H3V10Z" fill="#6A54FF"/>
<path d="M29 18H53V46C53 48.2091 51.2091 50 49 50H29V18Z" fill="#6A54FF"/>
<path d="M3 18H27V50H7C4.79086 50 3 48.2091 3 46V18Z" fill="#57E1FF"/>
<path d="M11.5 34L10.7929 34.7071C10.6054 34.5196 10.5 34.2652 10.5 34C10.5 33.7348 10.6054 33.4804 10.7929 33.2929L11.5 34ZM18.2071 39.2929C18.5976 39.6834 18.5976 40.3166 18.2071 40.7071C17.8166 41.0976 17.1834 41.0976 16.7929 40.7071L18.2071 39.2929ZM16.7929 27.2929C17.1834 26.9024 17.8166 26.9024 18.2071 27.2929C18.5976 27.6834 18.5976 28.3166 18.2071 28.7071L16.7929 27.2929ZM12.2071 33.2929L18.2071 39.2929L16.7929 40.7071L10.7929 34.7071L12.2071 33.2929ZM10.7929 33.2929L16.7929 27.2929L18.2071 28.7071L12.2071 34.7071L10.7929 33.2929Z" fill="black"/>
<circle cx="8" cy="11" r="2" fill="#ABF0FF"/>
<circle cx="14" cy="11" r="2" fill="#ABF0FF"/>
<circle cx="20" cy="11" r="2" fill="#ABF0FF"/>
</svg>
