<svg width="14" height="9" viewBox="0 0 14 9" fill="none" xmlns="http://www.w3.org/2000/svg">
<path d="M7 7.5L6.50503 7.99498C6.6363 8.12625 6.81435 8.2 7 8.2C7.18565 8.2 7.3637 8.12625 7.49498 7.99498L7 7.5ZM1.49497 1.00503C1.22161 0.731659 0.778391 0.73166 0.505024 1.00503C0.231657 1.27839 0.231657 1.72161 0.505024 1.99498L1.49497 1.00503ZM13.495 1.99497C13.7683 1.72161 13.7683 1.27839 13.495 1.00503C13.2216 0.731658 12.7784 0.731658 12.505 1.00503L13.495 1.99497ZM7.49498 7.00503L1.49497 1.00503L0.505024 1.99498L6.50503 7.99498L7.49498 7.00503ZM7.49498 7.99498L13.495 1.99497L12.505 1.00503L6.50503 7.00503L7.49498 7.99498Z" fill="white"/>
</svg>
